<?xml version="1.0" encoding="UTF-8"?>
<svg id="Layer_1" data-name="Layer 1" xmlns="http://www.w3.org/2000/svg" viewBox="0 0 200 200">
  <defs>
    <style>
      .cls-1, .cls-2 {
        fill: #00a99d;
      }

      .cls-3 {
        fill: #fff;
      }

      .cls-2 {
        font-family: Degular-Semibold, Degular;
        font-size: 101.17px;
        font-weight: 600;
        letter-spacing: .26em;
      }
    </style>
  </defs>
  <text class="cls-2" transform="translate(35.89 129.64)"><tspan x="0" y="0">w</tspan></text>
  <text class="cls-2" transform="translate(113.53 129.64)"><tspan x="0" y="0">g</tspan></text>
  <g>
    <g>
      <circle class="cls-3" cx="110.51" cy="117.89" r="12.22"/>
      <g>
        <path class="cls-1" d="M99.23,118.79c-.29-.19-.51-.38-.67-.57.02-.54.07-1.07.16-1.59.16.19.38.38.66.56-.08.53-.14,1.06-.15,1.6"/>
        <path class="cls-1" d="M98.25,117.64c-.01-.07-.02-.14-.02-.21.04-.5.1-1.16.17-1.65v-.06c0,.11,0,.23.01.34-.09.52-.15,1.05-.17,1.59"/>
        <path class="cls-1" d="M99.78,115.45c-.28-.18-.49-.36-.64-.54.16-.5.36-.98.58-1.46.14.17.35.35.61.51-.21.48-.39.98-.55,1.48"/>
        <path class="cls-1" d="M98.86,114.35c-.03-.16-.02-.32.04-.47l.02-.06.28-.74c.1-.23.2-.45.31-.67-.07.17-.09.34-.06.52-.23.46-.43.94-.59,1.43"/>
        <path class="cls-1" d="M101.13,112.39c-.24-.16-.43-.31-.56-.47.28-.44.6-.85.93-1.25.12.15.29.29.51.43-.32.41-.61.85-.88,1.3"/>
        <path class="cls-1" d="M100.33,111.43c-.03-.16-.01-.32.06-.48.29-.41.61-.8.95-1.16-.06.14-.08.29-.05.43-.34.38-.66.79-.95,1.21"/>
        <path class="cls-1" d="M103.16,109.77c-.19-.12-.33-.25-.44-.37.39-.35.79-.68,1.22-.99.09.11.21.21.37.31-.4.33-.79.67-1.15,1.04"/>
        <path class="cls-1" d="M102.53,109.02c-.02-.13,0-.25.04-.37.39-.32.81-.6,1.25-.87-.04.1-.06.21-.04.31-.44.28-.86.59-1.25.93"/>
        <path class="cls-1" d="M102.84,108.28s.1-.09.15-.13c.25-.18.57-.42.82-.58l.57-.35s.05-.03.07-.04c-.17.09-.3.19-.41.29-.42.24-.82.51-1.2.81"/>
        <path class="cls-1" d="M105.73,107.72c-.12-.08-.22-.16-.28-.24.47-.25.95-.46,1.45-.65.05.06.11.11.2.17-.47.21-.92.45-1.36.72"/>
        <path class="cls-1" d="M105.32,107.24c-.02-.08,0-.16.03-.24.47-.2.97-.37,1.47-.51-.02.06-.03.11-.02.17-.51.16-1,.36-1.48.58"/>
        <path class="cls-1" d="M105.53,106.76c.08-.08.19-.15.31-.22.43-.16.87-.28,1.33-.38-.09.05-.17.1-.22.16-.49.12-.96.26-1.42.44"/>
        <path class="cls-1" d="M106.29,106.33c.09-.04.19-.07.29-.1.14-.05.34-.11.48-.15.25-.06.58-.15.83-.19-.15.04-.29.08-.41.13-.41.07-.81.18-1.2.32"/>
        <path class="cls-1" d="M108.09,105.83c.22-.04.52-.09.74-.12h.1s-.06,0-.09,0c-.16.02-.3.04-.44.07-.1.01-.21.03-.31.05"/>
        <path class="cls-1" d="M112.03,105.7l.15.02c.18.03.41.07.59.1-.07-.01-.14-.03-.22-.04-.17-.03-.35-.06-.53-.09,0,0,0,0,.01,0"/>
        <path class="cls-1" d="M113.68,106.05h.03c.22.08.52.17.74.25.07.02.13.05.19.07-.39-.14-.8-.25-1.22-.33-.12-.05-.26-.09-.41-.14.22.04.44.08.66.14"/>
        <path class="cls-1" d="M108.72,106.41s-.08-.06-.1-.09c.52-.12,1.06-.2,1.61-.25,0,0,0,0,.01.01-.51.07-1.02.18-1.52.32"/>
        <path class="cls-1" d="M108.57,106.23s0-.06.01-.09c.54-.06,1.08-.1,1.64-.09,0,0,0,0,0,.01-.56.02-1.11.08-1.65.17"/>
        <path class="cls-1" d="M108.65,106.06s.07-.06.11-.08c.48-.02.98,0,1.48.06,0,0-.01,0-.01.01-.54-.03-1.07-.03-1.58.01"/>
        <path class="cls-1" d="M108.93,105.9c.06-.02.13-.05.21-.07.38.02.76.08,1.15.18,0,0-.02,0-.03,0-.45-.08-.9-.12-1.34-.12"/>
        <path class="cls-1" d="M109.39,105.77c.07-.01.15-.03.23-.04.02,0,.04,0,.07,0,.22.05.44.14.67.27,0,0,0,0,0,0,0,0-.02,0-.03,0-.31-.11-.62-.19-.93-.23"/>
        <path class="cls-1" d="M110,105.7c.11,0,.21-.01.32-.01.04.09.08.22.11.31-.01,0-.03,0-.04,0-.13-.14-.26-.24-.39-.3"/>
        <path class="cls-1" d="M110.64,105.69c.11,0,.21,0,.31.02-.15.06-.3.16-.45.29-.01,0-.02,0-.04,0,.06-.14.12-.24.18-.31"/>
        <path class="cls-1" d="M111.25,105.74c.1.01.19.03.27.05-.31.04-.63.11-.95.23-.01,0-.02,0-.03,0,.24-.13.48-.21.71-.27"/>
        <path class="cls-1" d="M111.77,105.84c.08.02.15.04.21.07-.44,0-.89.04-1.35.11,0,0-.02,0-.03,0,.4-.1.79-.15,1.17-.17"/>
        <path class="cls-1" d="M103.76,128.11l-.51-.36s.07.05.11.08c.13.1.26.19.4.28"/>
        <path class="cls-1" d="M102.19,126.81c-.16-.1-.29-.21-.4-.32l-.53-.57-.18-.21-.34-.43c.13.16.31.31.55.46.28.38.58.73.9,1.06"/>
        <path class="cls-1" d="M100.44,124.39c-.26-.17-.46-.34-.6-.51-.23-.44-.44-.89-.61-1.36.15.18.36.36.63.54.16.46.36.91.58,1.33"/>
        <path class="cls-1" d="M99.43,121.43c-.28-.18-.5-.37-.66-.56-.1-.5-.17-1.02-.2-1.55.16.19.38.38.67.57.03.53.09,1.04.19,1.55"/>
        <path class="cls-1" d="M98.45,120.17c-.07-.47-.16-1.09-.2-1.56,0,.04,0,.08.02.12.03.49.09.97.18,1.44"/>
        <path class="cls-1" d="M122.45,115.81c.06.49.13,1.15.16,1.65,0,.1,0,.2-.04.3-.02-.54-.07-1.07-.16-1.59.04-.14.05-.28.02-.42v.06"/>
        <path class="cls-1" d="M122.23,118.33c-.17.18-.39.36-.67.54-.02-.54-.06-1.07-.15-1.6.27-.17.5-.35.66-.53.09.52.14,1.06.16,1.59"/>
        <path class="cls-1" d="M120.56,119.37c-.38.16-.82.31-1.3.45-.01-.54-.05-1.08-.12-1.61.48-.14.9-.29,1.28-.44.07.53.12,1.07.13,1.61"/>
        <path class="cls-1" d="M117.66,120.21c-.58.12-1.2.22-1.86.31,0-.54-.03-1.09-.07-1.62.65-.09,1.27-.19,1.83-.31.05.54.08,1.08.09,1.62"/>
        <path class="cls-1" d="M113.76,120.74c-.69.05-1.38.09-2.08.11,0-.54,0-1.09-.01-1.63.69-.02,1.37-.05,2.05-.11.02.54.04,1.08.04,1.63"/>
        <path class="cls-1" d="M109.59,120.85c-.69-.01-1.37-.05-2.04-.09,0-.54.02-1.09.04-1.63.66.05,1.33.08,2.01.09,0,.54-.01,1.09-.01,1.63"/>
        <path class="cls-1" d="M105.58,120.57c-.63-.08-1.24-.17-1.82-.27.01-.54.04-1.08.09-1.62.57.1,1.17.19,1.79.27-.04.54-.06,1.08-.07,1.62"/>
        <path class="cls-1" d="M102.12,119.94c-.51-.13-.99-.28-1.42-.44.02-.54.06-1.08.13-1.61.42.16.89.3,1.4.43-.06.54-.1,1.08-.11,1.62"/>
        <path class="cls-1" d="M121.97,113.92c.06.18.06.37.01.55-.16-.43-.39-1.01-.59-1.43.05-.17.05-.35-.01-.52.23.45.42.92.59,1.41"/>
        <path class="cls-1" d="M121.66,115.01c-.16.18-.38.35-.64.51-.15-.51-.33-1-.54-1.49.25-.16.45-.32.61-.49.22.47.41.96.57,1.46"/>
        <path class="cls-1" d="M120.07,116c-.36.15-.78.29-1.24.43-.12-.52-.26-1.03-.43-1.53.44-.13.83-.26,1.17-.41.19.49.35,1,.49,1.51"/>
        <path class="cls-1" d="M117.32,116.8c-.55.11-1.14.21-1.77.3-.07-.53-.16-1.05-.26-1.57.6-.08,1.16-.17,1.68-.28.13.51.25,1.03.35,1.55"/>
        <path class="cls-1" d="M113.6,117.3c-.65.05-1.32.08-1.98.1-.02-.53-.04-1.06-.06-1.58.63-.02,1.26-.05,1.88-.1.06.52.11,1.04.16,1.58"/>
        <path class="cls-1" d="M109.63,117.41c-.66-.01-1.3-.04-1.94-.09.04-.53.09-1.06.14-1.58.6.04,1.22.07,1.84.08-.02.52-.03,1.05-.04,1.58"/>
        <path class="cls-1" d="M105.83,117.14c-.6-.07-1.18-.16-1.73-.26.09-.53.2-1.05.33-1.56.52.09,1.07.18,1.64.25-.09.51-.17,1.04-.24,1.57"/>
        <path class="cls-1" d="M102.53,116.54c-.49-.13-.94-.27-1.35-.42.13-.52.29-1.02.47-1.52.39.14.82.28,1.28.4-.16.5-.29,1.02-.41,1.54"/>
        <path class="cls-1" d="M120.52,111.06c.05.16.06.32.01.48-.29-.42-.61-.83-.95-1.22.04-.14.04-.29,0-.44.34.37.66.76.95,1.17"/>
        <path class="cls-1" d="M120.24,112.01c-.14.15-.33.3-.56.45-.27-.45-.56-.89-.87-1.3.21-.13.38-.27.51-.41.33.4.64.82.92,1.26"/>
        <path class="cls-1" d="M118.86,112.87c-.59.22-.63.24-1.08.37-.2-.42-.47-.97-.69-1.38.36-.11.69-.22.98-.34.28.43.55.88.79,1.34"/>
        <path class="cls-1" d="M116.45,113.57c-.48.1-.99.18-1.54.26-.13-.49-.27-.97-.42-1.43.5-.07.97-.15,1.4-.23.2.46.39.93.56,1.41"/>
        <path class="cls-1" d="M113.2,114.01c-.57.04-1.15.07-1.73.09-.03-.5-.06-.99-.1-1.46.52-.01,1.05-.04,1.56-.08.09.47.18.96.26,1.45"/>
        <path class="cls-1" d="M109.74,114.1c-.57-.01-1.14-.04-1.69-.08.07-.5.15-.98.23-1.45.5.04,1.02.06,1.54.07-.02.47-.05.96-.07,1.46"/>
        <path class="cls-1" d="M106.41,113.87c-.52-.06-1.03-.14-1.51-.23.16-.49.33-.96.52-1.42.44.08.89.15,1.37.21-.14.46-.26.94-.38,1.44"/>
        <path class="cls-1" d="M103.54,113.35c-.43-.11-.82-.23-1.18-.36.23-.47.49-.92.76-1.35.32.12.68.23,1.07.33-.23.45-.45.91-.65,1.39"/>
        <path class="cls-1" d="M116.55,107.27c.41.26.94.62,1.33.9.08.06.14.12.2.18-.38-.3-.78-.57-1.21-.82-.1-.11-.24-.21-.42-.31.03.02.06.03.09.05"/>
        <path class="cls-1" d="M118.33,108.72c.04.13.04.25,0,.38-.39-.34-.81-.65-1.25-.94.03-.11.03-.21,0-.32.44.27.85.56,1.25.88"/>
        <path class="cls-1" d="M118.12,109.47c-.11.12-.26.24-.44.35-.36-.37-.74-.73-1.14-1.05.15-.09.28-.19.37-.29.42.31.83.64,1.21,1"/>
        <path class="cls-1" d="M117.03,110.15c-.25.1-.53.2-.84.29-.29-.4-.59-.79-.91-1.15.26-.08.5-.16.71-.25.36.35.71.72,1.04,1.1"/>
        <path class="cls-1" d="M115.15,110.69c-.37.08-.78.14-1.21.2-.17-.43-.36-.84-.55-1.22.36-.05.7-.11,1.02-.17.26.38.51.77.74,1.19"/>
        <path class="cls-1" d="M112.61,111.03c-.45.03-.9.06-1.35.07-.04-.44-.08-.86-.13-1.26.38-.01.76-.03,1.14-.06.12.39.23.81.34,1.25"/>
        <path class="cls-1" d="M109.89,111.11c-.45-.01-.89-.03-1.33-.06.09-.44.19-.85.3-1.25.37.03.74.04,1.12.05-.03.4-.06.82-.09,1.26"/>
        <path class="cls-1" d="M107.29,110.93c-.41-.05-.8-.11-1.18-.18.22-.42.45-.82.69-1.2.32.06.65.11.99.15-.18.39-.34.8-.5,1.23"/>
        <path class="cls-1" d="M105.04,110.51c-.33-.09-.64-.18-.92-.29.32-.39.65-.77,1-1.12.23.09.5.17.78.24-.3.37-.58.75-.85,1.16"/>
        <path class="cls-1" d="M115.07,106.56c.13.08.24.16.32.24-.46-.18-.94-.33-1.43-.45-.06-.06-.13-.11-.23-.17.46.1.91.22,1.34.38"/>
        <path class="cls-1" d="M115.55,107.05c.03.08.03.16,0,.24-.48-.23-.97-.42-1.48-.59.02-.06.02-.11,0-.17.51.14,1,.32,1.48.52"/>
        <path class="cls-1" d="M115.41,107.53c-.07.08-.17.15-.28.23-.44-.27-.89-.51-1.35-.73.08-.05.15-.11.2-.16.49.19.97.41,1.44.66"/>
        <path class="cls-1" d="M114.71,107.97c-.16.07-.34.13-.55.19-.35-.31-.7-.59-1.07-.84.14-.04.27-.09.39-.13.42.23.83.5,1.23.79"/>
        <path class="cls-1" d="M113.49,108.32c-.24.05-.5.09-.78.13-.21-.33-.43-.65-.65-.93.2-.03.38-.06.56-.09.3.27.6.57.88.89"/>
        <path class="cls-1" d="M111.84,108.54c-.29.02-.58.04-.87.05-.05-.35-.1-.67-.15-.97.21,0,.42-.02.62-.03.14.29.27.61.4.95"/>
        <path class="cls-1" d="M110.09,108.59c-.29,0-.58-.02-.86-.04.11-.34.23-.66.35-.96.2.01.4.02.61.03-.04.3-.07.62-.1.97"/>
        <path class="cls-1" d="M108.41,108.47c-.27-.03-.52-.07-.76-.11.26-.33.53-.63.81-.9.17.03.35.06.54.08-.2.29-.4.6-.59.93"/>
        <path class="cls-1" d="M106.95,108.21c-.22-.06-.41-.12-.6-.18.38-.3.78-.56,1.18-.8.13.05.27.09.42.13-.35.26-.68.55-1.01.86"/>
        <path class="cls-1" d="M112.14,105.99s.09.06.12.09c-.52-.04-1.05-.05-1.59-.03,0,0,0,0-.01-.01.5-.05,1-.07,1.49-.05"/>
        <path class="cls-1" d="M112.31,106.16s0,.06,0,.09c-.54-.1-1.09-.16-1.64-.19,0,0,0,0,0-.01.56,0,1.11.04,1.64.11"/>
        <path class="cls-1" d="M112.26,106.34s-.06.06-.1.08c-.45-.11-1.05-.25-1.51-.33,0,0,0,0,.01-.01.48.07,1.12.17,1.6.26"/>
        <path class="cls-1" d="M112,106.5c-.06.02-.13.05-.2.07-.39-.19-.79-.34-1.19-.46,0,0,.02,0,.02,0,.47.1.92.24,1.37.4"/>
        <path class="cls-1" d="M111.56,106.63c-.09.02-.18.03-.29.05-.24-.22-.48-.4-.73-.56.01,0,.02,0,.03,0,.33.14.66.31.98.52"/>
        <path class="cls-1" d="M110.96,106.71c-.11,0-.21.01-.32.02-.06-.23-.11-.43-.17-.6.01,0,.03,0,.04,0,.15.16.3.36.45.59"/>
        <path class="cls-1" d="M110.32,106.73c-.11,0-.21,0-.31-.01.13-.23.26-.43.39-.59.01,0,.03,0,.04,0-.04.17-.08.37-.11.6"/>
        <path class="cls-1" d="M109.7,106.68c-.1-.01-.19-.03-.28-.04.29-.21.6-.39.9-.53.01,0,.02,0,.03,0-.22.16-.44.35-.65.57"/>
        <path class="cls-1" d="M109.17,106.59c-.08-.02-.15-.04-.22-.07.43-.17.87-.31,1.32-.42,0,0,.02,0,.03,0-.38.13-.76.29-1.12.48"/>
        <path class="cls-1" d="M112.96,129.84c-.53.11-.58.12-.93.17.17-.02.34-.07.5-.13.26-.04.51-.08.74-.12-.1.03-.2.06-.31.09"/>
        <path class="cls-1" d="M111.35,130.08c-.15,0-.35.02-.5.03h-.11c.05,0,.1-.03.15-.1.28,0,.55-.02.82-.04-.12.07-.25.11-.37.12"/>
        <path class="cls-1" d="M110.17,130.11c-.11,0-.25,0-.36-.01h-.22c-.11-.02-.22-.06-.33-.13.26.02.53.03.81.04.03.07.07.1.1.1"/>
        <path class="cls-1" d="M108.97,130.03l-.29-.04c-.13-.02-.29-.05-.42-.07-.16-.03-.33-.07-.48-.13.23.04.47.08.72.11.16.06.31.11.48.13"/>
        <path class="cls-1" d="M107.38,129.72l-.24-.07-.32-.1c.1.03.2.06.3.09.09.03.17.05.26.08"/>
        <path class="cls-1" d="M116.86,128.26h-.02c.2-.11.39-.24.57-.38l.14-.1c-.21.14-.49.34-.7.47"/>
        <path class="cls-1" d="M115.72,128.87c-.2.08-.43.16-.68.24.32-.18.63-.39.93-.63.3-.09.58-.18.82-.28-.34.25-.69.48-1.06.68"/>
        <path class="cls-1" d="M114.2,129.31c-.3.06-.63.12-.98.16.2-.15.39-.34.57-.56.42-.06.81-.12,1.17-.2-.24.23-.49.42-.76.59"/>
        <path class="cls-1" d="M112.15,129.59c-.36.03-.72.05-1.09.06.05-.14.09-.32.13-.52.44-.01.87-.03,1.31-.07-.11.21-.23.39-.35.53"/>
        <path class="cls-1" d="M109.96,129.65c-.36,0-.72-.02-1.07-.05-.1-.15-.2-.32-.3-.53.42.03.85.05,1.28.06.03.21.06.38.09.52"/>
        <path class="cls-1" d="M107.87,129.5c-.33-.04-.65-.09-.95-.14-.24-.16-.48-.36-.7-.58.36.07.75.12,1.14.17.16.21.33.4.51.55"/>
        <path class="cls-1" d="M106.05,129.17c-.27-.07-.52-.15-.74-.23-.35-.19-.69-.41-1.02-.66.27.1.57.19.89.28.27.24.57.44.87.62"/>
        <path class="cls-1" d="M104.56,128.59l-.11-.06c-.32-.18-.63-.38-.92-.6.01,0,.03.01.04.02.32.24.65.45.99.64"/>
        <path class="cls-1" d="M119.42,126.11l-.4.41c-.12.12-.26.23-.44.34.32-.33.63-.68.9-1.06.23-.14.41-.29.55-.44-.19.26-.4.5-.62.74"/>
        <path class="cls-1" d="M117.85,127.24c-.28.12-.6.23-.95.33.26-.3.5-.63.72-.98.66-.21.7-.22,1.06-.37-.25.36-.53.7-.82,1.02"/>
        <path class="cls-1" d="M115.72,127.85c-.42.09-.88.16-1.37.23.16-.28.3-.59.44-.92.54-.07,1.05-.16,1.52-.25-.18.34-.38.66-.59.95"/>
        <path class="cls-1" d="M112.85,128.24c-.5.04-1.01.06-1.53.08.04-.27.07-.57.1-.9.57-.01,1.13-.04,1.69-.09-.08.33-.17.63-.27.91"/>
        <path class="cls-1" d="M109.79,128.32c-.51-.01-1.01-.03-1.5-.07-.08-.27-.16-.58-.23-.9.54.04,1.1.06,1.66.07.02.33.04.63.07.9"/>
        <path class="cls-1" d="M106.85,128.12c-.46-.06-.91-.12-1.33-.2-.19-.29-.37-.6-.54-.94.47.09.97.16,1.48.22.12.33.25.64.39.92"/>
        <path class="cls-1" d="M104.31,127.65c-.38-.1-.72-.21-1.04-.32-.28-.31-.54-.65-.78-1.01.35.13.74.25,1.16.36.21.35.43.67.67.97"/>
        <path class="cls-1" d="M120.93,123.98c-.15.16-.35.32-.6.48.22-.42.41-.87.58-1.33.26-.16.47-.33.63-.51-.17.47-.38.92-.61,1.36"/>
        <path class="cls-1" d="M119.44,124.91c-.34.14-.73.28-1.16.4.15-.38.34-.89.46-1.28.45-.13.86-.27,1.22-.42-.15.45-.33.89-.53,1.3"/>
        <path class="cls-1" d="M116.86,125.66c-.51.1-1.07.2-1.66.28.11-.39.2-.81.28-1.24.63-.08,1.21-.18,1.75-.29-.11.44-.23.86-.38,1.26"/>
        <path class="cls-1" d="M113.38,126.13c-.61.05-1.23.08-1.85.1.02-.38.05-.79.07-1.23.66-.02,1.31-.05,1.96-.1-.05.43-.11.85-.18,1.23"/>
        <path class="cls-1" d="M109.67,126.23c-.61-.01-1.22-.04-1.82-.08-.06-.39-.1-.8-.15-1.23.63.04,1.27.07,1.92.09.01.43.02.84.04,1.23"/>
        <path class="cls-1" d="M106.1,125.98c-.56-.07-1.1-.15-1.62-.24-.13-.4-.24-.81-.34-1.26.54.1,1.12.19,1.71.26.07.44.15.85.25,1.24"/>
        <path class="cls-1" d="M103.02,125.41c-.46-.12-.88-.25-1.26-.39-.19-.41-.36-.84-.5-1.3.41.15.85.29,1.34.41.12.45.26.87.43,1.27"/>
        <path class="cls-1" d="M122.4,120.13l-.04.22-.02.07c.11-.51.18-1.03.21-1.56.02-.07.03-.14.04-.21-.05.45-.11,1.04-.19,1.48"/>
        <path class="cls-1" d="M122.01,120.98c-.17.18-.39.36-.66.53.1-.5.16-1.01.19-1.54.46-.32.48-.33.67-.54-.03.53-.1,1.05-.2,1.55"/>
        <path class="cls-1" d="M120.37,122c-.38.16-.8.3-1.28.44.08-.49.13-1,.15-1.53.48-.14.91-.29,1.3-.45-.03.53-.09,1.04-.18,1.54"/>
        <path class="cls-1" d="M117.53,122.83c-.56.11-1.17.22-1.83.31.05-.49.08-.99.09-1.52.66-.09,1.28-.19,1.86-.31-.02.53-.06,1.03-.13,1.52"/>
        <path class="cls-1" d="M113.69,123.34c-.67.05-1.36.09-2.04.11.01-.48.02-.99.02-1.51.69-.02,1.39-.05,2.07-.11-.01.52-.03,1.03-.06,1.51"/>
        <path class="cls-1" d="M109.6,123.46c-.68-.01-1.35-.04-2-.09-.02-.48-.04-.99-.05-1.51.67.05,1.35.08,2.04.09,0,.52,0,1.03.01,1.51"/>
        <path class="cls-1" d="M105.67,123.18c-.62-.08-1.21-.16-1.78-.27-.06-.49-.09-.99-.11-1.52.58.11,1.18.2,1.81.27.01.52.04,1.03.08,1.51"/>
        <path class="cls-1" d="M102.27,122.56c-.5-.13-.97-.28-1.39-.43-.08-.49-.14-1.01-.16-1.53.43.16.9.31,1.42.44.02.53.07,1.03.14,1.53"/>
      </g>
    </g>
    <path class="cls-1" d="M110.65,130.69c-7.06,0-12.81-5.74-12.81-12.81s5.74-12.81,12.81-12.81,12.8,5.74,12.8,12.81-5.74,12.81-12.8,12.81ZM110.65,106.3c-6.39,0-11.59,5.2-11.59,11.59s5.2,11.59,11.59,11.59,11.59-5.2,11.59-11.59-5.2-11.59-11.59-11.59Z"/>
  </g>
</svg>