<?xml version="1.0" encoding="UTF-8"?>
<svg id="Layer_1" data-name="Layer 1" xmlns="http://www.w3.org/2000/svg" viewBox="0 0 200 200">
  <defs>
    <style>
      .cls-1 {
        fill: none;
      }

      .cls-2 {
        fill: #00a99d;
      }

      .cls-3 {
        fill: #fff;
      }
    </style>
  </defs>
  <g>
    <path class="cls-2" d="M32.94,88.65c.57,2.19,1.08,4.51,1.51,6.9h.61c.47-2.36,1.04-4.51,1.65-6.96l1.41-6.12h3.6l-4.71,15.81h-4.74l-1.65-6.9c-.47-2.05-.91-4.14-1.24-6.26h-.54c-.37,2.09-.81,4.24-1.24,6.26l-1.58,6.9h-4.64l-4.71-15.81h3.73l1.58,6.12c.64,2.42,1.21,4.61,1.68,6.96h.61c.44-2.36.94-4.68,1.51-6.9l1.51-6.19h4.1l1.55,6.19Z"/>
    <path class="cls-2" d="M50.2,94.5h-.37c-.81,2.56-2.62,4.1-5.42,4.1s-4.81-1.35-4.81-4.44c0-2.83,1.72-4.88,5.72-4.88h4.71v-1.08c0-2.05-.84-3.23-3.06-3.23-1.85,0-2.93.94-3.33,2.79l-3.43-.77c.61-2.99,2.86-4.91,6.9-4.91,4.58,0,6.53,2.15,6.53,6.09v10.09h-3.43v-3.77ZM50.03,92.32v-.64h-4.1c-1.82,0-2.86.67-2.86,1.99,0,1.14.71,2.12,2.76,2.12,2.52,0,4.21-1.48,4.21-3.47Z"/>
    <path class="cls-2" d="M56.08,85.39h-2.22v-2.93h2.22v-4.27h3.63v4.27h4.64v2.93h-4.64v7.57c0,1.55.57,2.35,2.15,2.35.81,0,1.51-.17,2.29-.4l.44,3.23c-1.18.37-1.99.57-3.57.57-3.47,0-4.95-2.29-4.95-5.25v-8.07Z"/>
    <path class="cls-2" d="M72.03,85.25c-2.59,0-4.21,1.65-4.21,5.11,0,3.2,1.48,5.15,4.31,5.15,2.56,0,3.43-1.58,3.9-3.5l3.33.81c-.64,3.67-2.86,5.89-7.2,5.89-4.98,0-8.04-2.89-8.04-8.21s3.13-8.45,7.97-8.45c4.54,0,6.59,2.15,7.23,5.92l-3.4.64c-.47-2.02-1.41-3.36-3.9-3.36Z"/>
    <path class="cls-2" d="M83.77,98.27h-3.6v-21.6h3.6v9.96h.27c.91-2.89,2.83-4.58,5.58-4.58,3.26,0,4.81,2.22,4.81,5.65v10.56h-3.6v-9.62c0-1.92-.88-3.33-2.99-3.33-2.46,0-4.07,1.62-4.07,4v8.95Z"/>
  </g>
  <g>
    <path class="cls-2" d="M117.27,121.21c-5.99,0-7.74-1.28-7.74-3.3,0-1.38,1.48-2.39,3.63-2.86v-.13c-1.41-.27-2.15-1.01-2.15-2.12,0-.84.67-1.58,1.78-2.12l1.21-.67c-2.36-.77-3.6-2.49-3.6-4.88,0-3.57,2.59-5.52,6.96-5.52h7.84v2.79h-1.82c-.84,0-1.85-.07-3.2-.17l-.03.3c2.09.4,3.83,1.28,3.83,3.37,0,2.83-2.39,4.54-6.8,4.54-1.01,0-1.88-.1-2.66-.3l-.37.57c-.24.4-.4.67-.4,1.01,0,.64.5.88,1.55.88,1.78,0,3.6-.03,5.32-.03,3.33,0,4.95,1.45,4.95,3.9,0,3.2-2.05,4.74-8.31,4.74ZM122.69,116.57c0-.91-.64-1.55-2.19-1.55h-5.55c-1.72,0-2.59.87-2.59,1.75,0,1.28,1.01,1.82,5.11,1.82s5.22-.67,5.22-2.02ZM113.67,105.19c0,1.68.94,2.76,3.57,2.76s3.67-1.08,3.67-2.76-1.21-2.76-3.7-2.76-3.53,1.11-3.53,2.76Z"/>
    <path class="cls-2" d="M129.55,115.42h-3.63v-21.6h3.63v21.6Z"/>
    <path class="cls-2" d="M130.39,107.48c0-5.21,3.13-8.28,8.04-8.28s7.97,3.06,7.97,8.28-2.96,8.38-7.97,8.38-8.04-3.2-8.04-8.38ZM134.03,107.45c0,3.26,1.35,5.28,4.37,5.28s4.41-2.02,4.41-5.28-1.48-5.18-4.41-5.18-4.37,1.92-4.37,5.18Z"/>
    <path class="cls-2" d="M150.75,103.71h.24c.84-2.73,2.59-4.51,5.45-4.51,3.74,0,5.82,2.96,5.82,8.34s-2.19,8.31-5.75,8.31c-2.89,0-4.74-1.88-5.52-4.64h-.24v4.21h-3.6v-21.6h3.6v9.89ZM158.69,107.55c0-3.43-1.21-5.08-3.87-5.08-2.49,0-4.07,1.75-4.07,4.51v1.21c0,2.66,1.62,4.47,4.04,4.47,2.66,0,3.9-1.72,3.9-5.11Z"/>
    <path class="cls-2" d="M172.65,111.65h-.37c-.81,2.56-2.62,4.11-5.42,4.11s-4.81-1.35-4.81-4.44c0-2.83,1.72-4.88,5.72-4.88h4.71v-1.08c0-2.05-.84-3.23-3.06-3.23-1.85,0-2.93.94-3.33,2.79l-3.43-.77c.61-2.99,2.86-4.91,6.9-4.91,4.58,0,6.53,2.15,6.53,6.09v10.09h-3.43v-3.77ZM172.48,109.47v-.64h-4.1c-1.82,0-2.86.67-2.86,1.99,0,1.14.71,2.12,2.76,2.12,2.52,0,4.21-1.48,4.21-3.46Z"/>
    <path class="cls-2" d="M181.36,115.42h-3.63v-21.6h3.63v21.6Z"/>
  </g>
  <g>
    <circle class="cls-3" cx="102.79" cy="99.88" r="11.91"/>
    <g>
      <path class="cls-2" d="M91.79,100.76c-.28-.18-.5-.37-.66-.56.02-.52.07-1.04.16-1.55.15.18.37.37.65.55-.08.51-.13,1.03-.15,1.56h0Z"/>
      <path class="cls-2" d="M90.85,99.64c-.01-.07-.02-.14-.02-.21.04-.48.1-1.13.16-1.61v-.06c0,.11,0,.22.01.33-.09.51-.14,1.02-.16,1.55h0Z"/>
      <path class="cls-2" d="M92.33,97.5c-.27-.17-.48-.35-.62-.53.16-.49.35-.96.56-1.42.14.17.34.34.59.5-.2.47-.38.95-.53,1.45h0Z"/>
      <path class="cls-2" d="M91.43,96.43c-.03-.15-.02-.31.04-.46l.02-.06.28-.72c.09-.22.2-.44.3-.66-.07.17-.09.34-.06.51-.22.45-.42.91-.58,1.39h0Z"/>
      <path class="cls-2" d="M93.65,94.53c-.23-.15-.41-.31-.55-.46.28-.42.58-.83.91-1.22.12.14.28.28.49.42-.31.4-.59.83-.86,1.27h0Z"/>
      <path class="cls-2" d="M92.87,93.59c-.03-.16-.01-.31.05-.47.28-.4.59-.78.92-1.13-.06.14-.08.28-.05.42-.33.37-.65.77-.93,1.18h0Z"/>
      <path class="cls-2" d="M95.63,91.97c-.18-.12-.32-.24-.43-.36.38-.34.77-.66,1.19-.96.09.1.21.2.36.3-.39.32-.77.66-1.12,1.02h0Z"/>
      <path class="cls-2" d="M95.01,91.24c-.02-.12,0-.24.04-.36.38-.31.79-.59,1.21-.84-.04.1-.06.2-.04.31-.43.28-.83.58-1.22.9h0Z"/>
      <path class="cls-1" d="M95.32,90.52s.09-.08.15-.13c.24-.17.55-.41.8-.57l.55-.34s.05-.03.07-.04c-.16.09-.29.19-.4.28-.41.24-.8.5-1.17.79"/>
      <path class="cls-2" d="M98.14,89.98c-.12-.08-.21-.16-.28-.23.45-.24.92-.45,1.41-.63.05.06.11.11.2.17-.46.21-.9.44-1.33.7h0Z"/>
      <path class="cls-2" d="M97.74,89.5c-.01-.08,0-.16.03-.23.46-.19.94-.36,1.44-.5-.02.06-.03.11-.02.17-.5.16-.98.35-1.44.56h0Z"/>
      <path class="cls-2" d="M97.94,89.04c.08-.07.18-.15.31-.22.42-.15.85-.28,1.3-.37-.09.05-.16.1-.22.15-.48.11-.94.26-1.39.43h0Z"/>
      <path class="cls-1" d="M98.68,88.62c.09-.03.18-.07.29-.1.14-.04.33-.1.47-.15.24-.06.57-.15.81-.19-.15.04-.28.08-.4.13-.4.07-.79.17-1.17.31"/>
      <path class="cls-1" d="M100.43,88.13c.21-.04.5-.09.72-.12h.1s-.06,0-.09,0c-.15.02-.3.04-.43.07-.1.01-.2.03-.3.05"/>
      <path class="cls-1" d="M104.27,88.01l.14.02c.17.03.4.07.58.1-.07-.01-.14-.03-.21-.04-.16-.03-.34-.06-.52-.09,0,0,0,0,.01,0"/>
      <path class="cls-1" d="M105.88,88.34h.03c.22.07.51.16.73.24.07.02.13.05.19.07-.38-.14-.78-.24-1.19-.32-.12-.05-.25-.09-.4-.13.22.03.43.08.64.14"/>
      <path class="cls-2" d="M101.05,88.7s-.08-.06-.1-.09c.51-.11,1.03-.19,1.57-.24,0,0,0,0,.01.01-.5.07-.99.18-1.48.32h0Z"/>
      <path class="cls-2" d="M100.9,88.52s0-.06.01-.09c.52-.06,1.05-.09,1.6-.09,0,0,0,0,0,.01-.54.02-1.08.08-1.61.16h0Z"/>
      <path class="cls-2" d="M100.98,88.35s.07-.05.11-.08c.47-.02.95,0,1.44.06,0,0-.01,0-.01,0-.52-.03-1.04-.03-1.54.01h0Z"/>
      <path class="cls-2" d="M101.25,88.2c.06-.02.13-.04.2-.07.37.02.74.08,1.12.18,0,0-.02,0-.02,0-.44-.08-.88-.12-1.3-.12h0Z"/>
      <path class="cls-1" d="M101.7,88.08c.07-.01.14-.02.22-.03.02,0,.04,0,.07,0,.21.05.43.14.65.27,0,0,0,0,0,0,0,0-.02,0-.03,0-.31-.11-.61-.19-.9-.23"/>
      <path class="cls-2" d="M102.3,88.01c.1,0,.21-.01.31-.01.04.09.08.21.1.3-.01,0-.02,0-.04,0-.13-.13-.26-.23-.38-.29h0Z"/>
      <path class="cls-2" d="M102.92,88c.1,0,.2,0,.3.02-.14.06-.29.15-.44.29-.01,0-.02,0-.04,0,.06-.14.11-.24.17-.3h0Z"/>
      <path class="cls-2" d="M103.51,88.04c.09.01.18.03.27.04-.3.04-.61.11-.93.22-.01,0-.02,0-.03,0,.24-.12.47-.21.69-.26h0Z"/>
      <path class="cls-2" d="M104.02,88.14c.07.02.14.04.2.07-.43,0-.87.04-1.32.11,0,0-.02,0-.02,0,.39-.09.77-.15,1.14-.17h0Z"/>
      <path class="cls-1" d="M96.21,109.84l-.5-.35s.07.05.11.07c.13.1.26.19.39.27"/>
      <path class="cls-2" d="M94.68,108.58c-.16-.1-.29-.2-.39-.31l-.52-.56-.18-.21-.33-.42c.13.15.31.3.54.45.27.37.56.71.88,1.04h0Z"/>
      <path class="cls-2" d="M92.98,106.22c-.25-.16-.45-.33-.58-.49-.23-.43-.43-.87-.6-1.33.15.18.35.35.62.52.16.45.35.88.56,1.3h0Z"/>
      <path class="cls-2" d="M91.99,103.34c-.28-.18-.49-.36-.64-.55-.1-.49-.16-1-.19-1.51.16.19.37.37.66.55.03.52.09,1.02.18,1.51h0Z"/>
      <path class="cls-1" d="M91.04,102.11c-.07-.45-.15-1.06-.19-1.52,0,.04,0,.08.02.12.03.48.09.94.18,1.4"/>
      <path class="cls-2" d="M114.42,97.86c.06.48.13,1.12.16,1.61,0,.1,0,.19-.04.29-.02-.52-.07-1.04-.16-1.55.04-.14.05-.28.02-.41v.06h.01Z"/>
      <path class="cls-2" d="M114.21,100.31c-.17.18-.38.36-.66.52-.01-.53-.06-1.05-.14-1.56.27-.17.48-.34.65-.52.08.51.14,1.03.15,1.55h0Z"/>
      <path class="cls-2" d="M112.58,101.33c-.37.16-.8.3-1.27.44-.01-.53-.05-1.05-.11-1.57.46-.13.88-.28,1.25-.43.07.52.12,1.04.13,1.57h0Z"/>
      <path class="cls-2" d="M109.76,102.15c-.56.11-1.17.21-1.81.3,0-.53-.03-1.06-.07-1.58.64-.09,1.23-.19,1.79-.3.05.52.08,1.05.09,1.58h0Z"/>
      <path class="cls-2" d="M105.95,102.66c-.67.05-1.35.09-2.02.11,0-.53,0-1.06-.01-1.59.67-.02,1.34-.05,2-.1.02.53.04,1.06.04,1.59h0Z"/>
      <path class="cls-2" d="M101.89,102.77c-.67-.01-1.34-.04-1.99-.09,0-.53.02-1.06.04-1.59.64.04,1.3.07,1.96.09,0,.53-.01,1.06-.01,1.59h0Z"/>
      <path class="cls-2" d="M97.99,102.5c-.61-.07-1.21-.16-1.77-.27.01-.53.04-1.06.09-1.58.56.1,1.14.19,1.75.26-.04.53-.06,1.06-.07,1.58h0Z"/>
      <path class="cls-2" d="M94.61,101.88c-.5-.13-.96-.27-1.38-.43.01-.53.06-1.05.13-1.57.41.15.87.29,1.36.42-.06.52-.1,1.05-.11,1.58h0Z"/>
      <path class="cls-2" d="M113.96,96.02c.06.18.06.36.01.54-.16-.42-.38-.98-.57-1.4.05-.17.05-.34-.01-.51.22.44.41.9.57,1.37h0Z"/>
      <path class="cls-2" d="M113.66,97.08c-.16.17-.37.34-.62.5-.15-.49-.32-.98-.52-1.45.24-.15.44-.31.59-.47.21.46.4.94.56,1.42h0Z"/>
      <path class="cls-2" d="M112.11,98.04c-.36.15-.76.29-1.2.42-.12-.51-.26-1-.41-1.49.42-.12.81-.26,1.14-.4.18.48.34.97.48,1.47h0Z"/>
      <path class="cls-2" d="M109.42,98.82c-.53.11-1.11.21-1.72.29-.07-.51-.15-1.03-.25-1.53.58-.08,1.13-.17,1.64-.27.13.5.24,1,.34,1.51h0Z"/>
      <path class="cls-2" d="M105.8,99.31c-.64.05-1.28.08-1.93.1-.02-.52-.04-1.03-.06-1.54.61-.02,1.22-.05,1.83-.09.06.5.11,1.02.15,1.54h0Z"/>
      <path class="cls-2" d="M101.94,99.41c-.64-.01-1.27-.04-1.89-.09.04-.52.09-1.03.14-1.54.59.04,1.19.07,1.79.08-.02.51-.03,1.02-.04,1.54h0Z"/>
      <path class="cls-2" d="M98.23,99.16c-.58-.07-1.15-.16-1.68-.25.09-.51.2-1.02.32-1.52.51.09,1.04.17,1.6.24-.09.5-.17,1.01-.23,1.53h0Z"/>
      <path class="cls-2" d="M95.02,98.57c-.47-.12-.91-.26-1.31-.41.13-.5.28-1,.46-1.48.38.14.8.27,1.25.39-.15.49-.28.99-.39,1.5h0Z"/>
      <path class="cls-2" d="M112.54,93.23c.05.16.06.31.01.47-.28-.41-.59-.81-.92-1.19.04-.14.04-.28,0-.42.33.36.64.74.92,1.14h0Z"/>
      <path class="cls-2" d="M112.28,94.15c-.14.15-.32.3-.54.44-.26-.44-.54-.86-.85-1.27.2-.13.37-.26.49-.39.32.39.62.8.9,1.23h0Z"/>
      <path class="cls-2" d="M110.92,95c-.57.22-.62.24-1.05.36-.19-.41-.46-.95-.67-1.34.35-.1.67-.21.95-.33.28.42.54.86.77,1.31h0Z"/>
      <path class="cls-2" d="M108.58,95.68c-.47.09-.97.18-1.51.25-.13-.48-.26-.94-.41-1.4.49-.07.94-.14,1.36-.23.2.44.38.9.55,1.37h0Z"/>
      <path class="cls-2" d="M105.42,96.1c-.56.04-1.12.07-1.68.09-.03-.49-.06-.96-.09-1.42.51-.01,1.02-.04,1.52-.08.09.46.18.93.25,1.41h0Z"/>
      <path class="cls-2" d="M102.04,96.19c-.56-.01-1.11-.04-1.65-.07.07-.48.14-.96.22-1.42.49.03.99.06,1.5.07-.02.46-.05.94-.07,1.42h0Z"/>
      <path class="cls-2" d="M98.8,95.97c-.51-.06-1-.14-1.47-.22.16-.47.33-.93.51-1.38.42.08.87.14,1.33.2-.13.45-.26.92-.37,1.4h0Z"/>
      <path class="cls-2" d="M95.99,95.46c-.41-.11-.8-.23-1.15-.36.23-.45.48-.9.74-1.32.32.12.66.22,1.04.32-.23.44-.44.89-.63,1.35h0Z"/>
      <path class="cls-1" d="M108.67,89.53c.4.25.92.6,1.3.88.08.06.14.11.2.17-.37-.29-.76-.56-1.18-.8-.1-.1-.24-.2-.41-.3.03.02.06.03.08.05"/>
      <path class="cls-2" d="M110.41,90.95c.04.12.04.24,0,.37-.38-.33-.79-.63-1.21-.92.03-.1.03-.21,0-.31.42.26.83.55,1.21.86h0Z"/>
      <path class="cls-2" d="M110.2,91.68c-.11.12-.25.23-.43.34-.35-.36-.72-.71-1.11-1.03.15-.09.27-.19.36-.29.41.3.81.63,1.18.97h0Z"/>
      <path class="cls-2" d="M109.14,92.34c-.24.1-.52.2-.82.28-.28-.39-.57-.77-.88-1.12.26-.07.49-.16.69-.24.35.34.69.7,1.01,1.08h0Z"/>
      <path class="cls-2" d="M107.31,92.87c-.36.07-.76.14-1.18.2-.17-.42-.35-.81-.54-1.19.35-.05.69-.1.99-.16.25.37.49.75.72,1.16h0Z"/>
      <path class="cls-2" d="M104.83,93.2c-.44.03-.88.06-1.32.07-.04-.43-.08-.83-.12-1.22.37-.01.74-.03,1.11-.06.12.38.23.79.33,1.21h0Z"/>
      <path class="cls-2" d="M102.19,93.28c-.44-.01-.87-.03-1.29-.06.09-.42.19-.83.29-1.22.36.02.72.04,1.09.05-.03.39-.06.8-.09,1.23h0Z"/>
      <path class="cls-2" d="M99.66,93.1c-.4-.05-.78-.11-1.15-.17.21-.41.43-.8.67-1.17.31.06.63.1.97.15-.17.38-.33.78-.49,1.2h0Z"/>
      <path class="cls-2" d="M97.46,92.7c-.32-.08-.63-.18-.9-.28.31-.38.63-.75.98-1.09.23.08.48.16.76.23-.29.36-.57.74-.83,1.13h0Z"/>
      <path class="cls-2" d="M107.23,88.85c.13.08.23.15.31.23-.45-.18-.91-.32-1.39-.44-.06-.06-.13-.11-.22-.16.45.09.88.22,1.3.37h0Z"/>
      <path class="cls-2" d="M107.7,89.32c.03.08.03.16,0,.24-.46-.22-.94-.41-1.44-.58.02-.06.02-.11,0-.17.49.14.97.31,1.44.51h0Z"/>
      <path class="cls-2" d="M107.56,89.79c-.07.08-.16.15-.28.22-.43-.26-.87-.5-1.32-.71.08-.05.15-.1.2-.16.48.19.95.4,1.4.65h0Z"/>
      <path class="cls-2" d="M106.88,90.22c-.16.07-.33.13-.53.18-.34-.3-.69-.58-1.05-.82.14-.04.27-.08.38-.13.41.23.81.49,1.2.77h0Z"/>
      <path class="cls-2" d="M105.69,90.56c-.24.05-.49.09-.76.13-.21-.33-.42-.63-.64-.91.19-.03.37-.06.54-.09.29.26.58.55.86.87h0Z"/>
      <path class="cls-2" d="M104.09,90.77c-.28.02-.57.04-.85.05-.05-.34-.1-.66-.15-.94.2,0,.41-.02.61-.03.14.28.27.6.39.93h0Z"/>
      <path class="cls-2" d="M102.38,90.82c-.28,0-.56-.02-.84-.04.11-.34.22-.65.34-.93.19.01.39.02.59.03-.03.29-.07.61-.1.94h0Z"/>
      <path class="cls-2" d="M100.74,90.71c-.26-.03-.51-.07-.74-.11.25-.32.52-.61.79-.88.17.03.35.06.53.08-.2.28-.39.58-.57.91h0Z"/>
      <path class="cls-2" d="M99.32,90.45c-.21-.05-.4-.11-.58-.18.37-.29.76-.55,1.15-.78.13.05.26.09.41.13-.34.25-.67.53-.99.84h0Z"/>
      <path class="cls-2" d="M104.37,88.28s.09.06.11.08c-.51-.04-1.02-.05-1.55-.03,0,0,0,0-.01-.01.49-.05.98-.07,1.45-.05h0Z"/>
      <path class="cls-2" d="M104.55,88.46s0,.06,0,.09c-.52-.09-1.06-.15-1.6-.18,0,0,0,0,0,0,.54,0,1.08.04,1.6.1h0Z"/>
      <path class="cls-2" d="M104.5,88.63s-.06.05-.1.08c-.44-.11-1.02-.25-1.47-.33,0,0,0,0,.01,0,.47.06,1.09.16,1.56.26h0Z"/>
      <path class="cls-2" d="M104.25,88.78c-.06.02-.12.05-.2.07-.38-.18-.77-.33-1.16-.45,0,0,.02,0,.02,0,.45.1.9.23,1.34.39h0Z"/>
      <path class="cls-2" d="M103.81,88.91c-.09.02-.18.03-.28.05-.23-.21-.47-.39-.71-.54.01,0,.02,0,.03,0,.32.14.64.3.95.5h0Z"/>
      <path class="cls-2" d="M103.23,88.99c-.1,0-.21.01-.31.02-.05-.23-.11-.42-.16-.59.01,0,.02,0,.04,0,.15.16.3.35.44.57h0Z"/>
      <path class="cls-2" d="M102.6,89c-.1,0-.21,0-.31-.01.12-.22.25-.42.38-.58.01,0,.02,0,.04,0-.04.16-.07.36-.11.59h0Z"/>
      <path class="cls-2" d="M102,88.96c-.09-.01-.19-.02-.27-.04.29-.2.58-.38.88-.52.01,0,.02,0,.03,0-.22.15-.43.34-.64.55h0Z"/>
      <path class="cls-2" d="M101.48,88.87c-.08-.02-.15-.04-.21-.07.42-.17.85-.31,1.28-.41,0,0,.02,0,.03,0-.37.12-.74.28-1.1.47h0Z"/>
      <path class="cls-1" d="M105.18,111.53c-.52.1-.56.11-.91.16.17-.02.33-.07.49-.13.26-.03.5-.07.72-.12-.1.03-.2.06-.3.09"/>
      <path class="cls-2" d="M103.61,111.76c-.14,0-.34.02-.48.03h-.1c.05,0,.1-.03.15-.1.27,0,.54-.02.8-.04-.12.07-.24.1-.36.11h0Z"/>
      <path class="cls-2" d="M102.46,111.79c-.11,0-.25,0-.35-.01h-.21c-.11-.02-.22-.06-.32-.12.26.02.52.03.79.04.03.07.06.1.1.1h0Z"/>
      <path class="cls-1" d="M101.29,111.71l-.29-.04c-.12-.02-.29-.05-.41-.07-.16-.03-.32-.07-.47-.13.22.04.46.08.7.11.15.06.31.1.47.13"/>
      <path class="cls-1" d="M99.74,111.42l-.24-.06-.31-.09c.09.03.19.06.29.08.08.03.17.05.25.07"/>
      <path class="cls-1" d="M108.97,109.99h-.02c.19-.11.38-.23.56-.37l.14-.09c-.2.14-.47.33-.68.46"/>
      <path class="cls-2" d="M107.87,110.59c-.2.08-.42.16-.66.23.32-.18.62-.38.9-.61.3-.09.56-.18.8-.28-.33.25-.67.47-1.04.66h0Z"/>
      <path class="cls-2" d="M106.39,111.02c-.29.06-.61.11-.95.16.19-.15.38-.33.55-.54.41-.06.79-.12,1.14-.19-.24.22-.48.41-.74.57h0Z"/>
      <path class="cls-2" d="M104.39,111.28c-.35.03-.71.05-1.06.06.05-.14.09-.31.13-.51.43-.01.85-.03,1.27-.07-.11.2-.22.38-.34.52h0Z"/>
      <path class="cls-2" d="M102.26,111.34c-.35,0-.7-.02-1.04-.05-.1-.14-.2-.32-.29-.52.41.03.83.05,1.25.06.03.2.05.37.08.51h0Z"/>
      <path class="cls-2" d="M100.21,111.2c-.32-.04-.63-.09-.93-.14-.24-.16-.46-.35-.68-.57.35.06.73.12,1.11.17.16.21.32.39.49.54h0Z"/>
      <path class="cls-2" d="M98.44,110.88c-.26-.07-.5-.14-.72-.22-.35-.19-.68-.4-.99-.65.26.1.56.19.87.27.27.23.55.43.85.6h0Z"/>
      <path class="cls-1" d="M96.99,110.31l-.11-.06c-.31-.18-.61-.37-.9-.59.01,0,.03.01.04.02.31.23.63.44.97.63"/>
      <path class="cls-2" d="M111.47,107.9l-.39.4c-.11.11-.26.22-.43.33.32-.32.61-.66.88-1.03.22-.14.4-.28.53-.43-.19.25-.39.49-.6.72h0Z"/>
      <path class="cls-2" d="M109.94,108.99c-.27.11-.58.22-.93.32.25-.29.48-.61.7-.95.64-.2.68-.21,1.03-.36-.25.35-.51.68-.8.99h0Z"/>
      <path class="cls-2" d="M107.87,109.59c-.41.08-.86.16-1.33.22.15-.27.3-.57.43-.9.53-.07,1.02-.15,1.48-.25-.18.33-.37.64-.57.92h0Z"/>
      <path class="cls-2" d="M105.08,109.97c-.49.04-.99.06-1.49.08.04-.26.07-.56.1-.87.55-.01,1.1-.04,1.65-.09-.08.32-.17.62-.26.88h0Z"/>
      <path class="cls-2" d="M102.09,110.05c-.49-.01-.98-.03-1.46-.07-.08-.27-.16-.56-.22-.88.53.04,1.07.06,1.62.07.02.32.04.61.06.87h0Z"/>
      <path class="cls-2" d="M99.23,109.85c-.45-.05-.89-.12-1.3-.2-.19-.28-.36-.59-.52-.92.46.08.94.16,1.44.22.12.32.24.62.38.9h0Z"/>
      <path class="cls-2" d="M96.75,109.4c-.37-.1-.71-.2-1.01-.31-.27-.3-.53-.63-.76-.98.34.13.72.24,1.13.35.2.34.42.66.65.95h0Z"/>
      <path class="cls-2" d="M112.94,105.82c-.15.16-.34.32-.58.47.21-.41.4-.85.56-1.3.26-.16.46-.32.62-.49-.17.46-.37.9-.6,1.32h0Z"/>
      <path class="cls-2" d="M111.49,106.73c-.33.14-.71.27-1.13.39.14-.37.33-.87.45-1.25.44-.13.84-.27,1.19-.41-.15.44-.32.87-.51,1.27h0Z"/>
      <path class="cls-2" d="M108.98,107.45c-.5.1-1.04.19-1.61.27.1-.38.2-.79.27-1.21.61-.08,1.18-.18,1.71-.29-.1.43-.23.84-.37,1.23h0Z"/>
      <path class="cls-2" d="M105.59,107.91c-.6.05-1.2.08-1.8.09.02-.37.05-.77.07-1.2.64-.02,1.28-.05,1.91-.1-.05.42-.11.83-.17,1.2h0Z"/>
      <path class="cls-2" d="M101.97,108.01c-.6-.01-1.19-.04-1.77-.08-.05-.38-.1-.78-.14-1.2.61.04,1.24.07,1.87.08.01.42.02.82.04,1.2h0Z"/>
      <path class="cls-2" d="M98.5,107.77c-.55-.07-1.07-.15-1.58-.24-.13-.39-.24-.79-.33-1.22.53.1,1.09.18,1.67.25.07.43.15.83.24,1.21h0Z"/>
      <path class="cls-2" d="M95.49,107.22c-.44-.12-.86-.24-1.23-.38-.19-.4-.35-.82-.49-1.26.4.15.83.28,1.3.4.12.44.26.85.42,1.24h0Z"/>
      <path class="cls-2" d="M114.38,102.07l-.04.21-.02.07c.1-.5.17-1,.2-1.52.02-.07.03-.13.04-.2-.05.43-.1,1.01-.18,1.44h0Z"/>
      <path class="cls-2" d="M114,102.9c-.16.18-.38.35-.64.51.09-.49.16-.99.19-1.5.45-.31.46-.32.65-.52-.03.52-.1,1.02-.2,1.51h0Z"/>
      <path class="cls-2" d="M112.4,103.89c-.37.15-.78.3-1.24.43.07-.48.13-.98.15-1.49.47-.14.89-.28,1.26-.44-.03.52-.09,1.01-.17,1.5h0Z"/>
      <path class="cls-2" d="M109.63,104.7c-.55.11-1.14.21-1.78.3.05-.47.08-.97.09-1.48.65-.09,1.25-.19,1.81-.3-.02.51-.06,1.01-.12,1.48h0Z"/>
      <path class="cls-2" d="M105.89,105.2c-.66.05-1.32.09-1.99.1.01-.47.02-.96.02-1.47.68-.02,1.35-.05,2.02-.11,0,.51-.03,1-.06,1.47h0Z"/>
      <path class="cls-2" d="M101.9,105.31c-.66-.01-1.31-.04-1.95-.09-.02-.47-.04-.96-.04-1.47.65.04,1.31.07,1.99.09,0,.51,0,1,.01,1.47h0Z"/>
      <path class="cls-2" d="M98.07,105.04c-.6-.07-1.18-.16-1.74-.26-.06-.47-.09-.97-.11-1.48.56.1,1.15.19,1.77.27.01.51.04,1,.08,1.48h0Z"/>
      <path class="cls-2" d="M94.76,104.44c-.49-.13-.94-.27-1.36-.42-.08-.48-.13-.98-.16-1.49.42.16.88.3,1.38.43.02.51.07,1.01.14,1.49h0Z"/>
    </g>
  </g>
  <path class="cls-2" d="M102.93,112.36c-6.88,0-12.48-5.6-12.48-12.48s5.6-12.48,12.48-12.48,12.48,5.6,12.48,12.48-5.6,12.48-12.48,12.48ZM102.93,88.59c-6.23,0-11.29,5.07-11.29,11.29s5.07,11.29,11.29,11.29,11.29-5.07,11.29-11.29-5.07-11.29-11.29-11.29Z"/>
  <path class="cls-2" d="M102.86,139.51c-21.79,0-39.51-17.72-39.51-39.51s17.73-39.51,39.51-39.51,39.51,17.73,39.51,39.51-17.72,39.51-39.51,39.51ZM102.86,62.32c-20.77,0-37.68,16.9-37.68,37.68s16.9,37.68,37.68,37.68,37.68-16.9,37.68-37.68-16.9-37.68-37.68-37.68Z"/>
</svg>